<?xml version="1.0" encoding="utf-8"?>
<!-- Generator: Adobe Illustrator 27.5.0, SVG Export Plug-In . SVG Version: 6.00 Build 0)  -->
<svg version="1.1" xmlns="http://www.w3.org/2000/svg" xmlns:xlink="http://www.w3.org/1999/xlink" x="0px" y="0px"
	 viewBox="0 0 2000 2000" style="enable-background:new 0 0 2000 2000;" xml:space="preserve">
<g id="Background">
	<rect id="Latar_4" style="fill:#FFFFFF;" width="2000" height="2000"/>
</g>
<g id="Object">
	<g id="g505502" transform="matrix(1.1494756,0,0,1.1494756,-55.175727,38.740659)">
		<path id="path469295" style="fill:#F0B772;" d="M1651.238,1081.508l51.688-17.656c23.66-73.553-42.981-94.137-90.439-57.091
			c0,0-11.843,32.316-9.69,36.625C1604.95,1047.694,1651.237,1081.508,1651.238,1081.508L1651.238,1081.508z"/>
		<path id="path469293" style="fill:#F0B772;" d="M1307.126,1163.771c18.283,9.854,95.246,3.827,109.409-2.971
			c12.556-36.062-31.232-98.423-67.832-101.254c-5.38-0.002-35.526,15.079-35.526,15.079s-12.92,10.772-15.073,17.235
			C1295.95,1098.322,1284.925,1126.886,1307.126,1163.771L1307.126,1163.771z"/>
		<path id="path469291" style="fill:#F0B772;" d="M956.923,993.152c0,0-13.039,2.837-17.346,22.226
			c-4.307,19.389-8.613,28.007-8.613,28.007l65.547,25.936c0,0,19.508-10.855,24.892-33.476
			C1026.786,1013.224,982.882,983.852,956.923,993.152z"/>
		<path id="path466817" style="fill:#B8693F;" d="M1154.864,426.454c0-44.178,156.83-42.655,211.644-41.131
			c54.814,1.523,172.056,3.047,169.011,35.038c-25.885,65.505-185.76,233.077-185.76,233.077s-115.719-73.122-117.242-80.739
			C1230.995,565.082,1154.864,426.454,1154.864,426.454z"/>
		<path id="path465103" style="fill:#8A4F2F;" d="M1154.864,426.454c0,0-3.045,216.32-6.091,280.302
			c-3.045,63.982,19.443,167.355-66.995,216.32c-35.652,20.196-124.855,70.076-124.855,70.076s57.86,15.234,39.588,76.169
			c54.814,0,73.085-9.14,133.99-6.094c60.905,3.047,70.041-9.14,91.357,21.327c21.317,30.468,85.267,79.216,85.267,79.216
			s-15.226-63.982,33.498-76.169c48.724-12.187,64.319,14.832,64.319,14.832c-2.936-18.291-27.452-38.155,4.199-36.16
			c0,0,49.485,10.663,98.97,15.234c38.357,3.542,143.126,0,143.126,0s-15.226-73.122,33.497-88.356
			c-79.176-54.842-143.126-67.029-152.262-118.824c-9.136-51.795,3.045-453.968,3.045-453.968s-97.448,27.421-121.81,24.374
			c-24.362-3.047-54.814,0-54.814,0l-12.181,158.432l-24.362-158.432C1322.352,444.735,1230.995,447.782,1154.864,426.454
			L1154.864,426.454z"/>
		<path id="path475099" style="fill:#EFB870;" d="M1182.363,410.534c-62.764,27.027,227.092,27.023,224.48,27.468
			c16.887,0.122,96.561-7.662,107.131-24.235c-22.219-26.396-153.283-20.262-180.341-22.084c0,0-1.076,5.386-5.922,4.847
			c-4.845-0.539-1.076-3.77-5.922-4.309C1292.288,389.604,1213.951,396.495,1182.363,410.534L1182.363,410.534z"/>
		<path id="path480789" style="fill:#DC9F5C;" d="M1318.545,397.51c0,0-75.37,6.094-92.88,12.187
			c-17.51,6.094-30.453,10.664,43.395,12.949c73.847,2.285,125.616,6.855,149.217,5.332c23.601-1.523,57.098-9.14,61.666-16.757
			c4.568-7.617,3.045-3.808-12.942-6.855c-15.987-3.047-122.571-5.332-122.571-5.332S1327.681,411.982,1318.545,397.51z"/>
		<path id="path484219" style="fill:#EFB870;" d="M1312.638,402.455c0,0,1.615,8.079,17.226,8.079
			c15.612,0,23.148-5.386,23.148-5.386s95.284,0.539,102.282,5.386c-16.756,17.8-98.996,6.621-129.735,7.543
			C1247.186,417.921,1205.989,415.111,1312.638,402.455z"/>
		<path id="path485465" style="fill:#DC9F5C;" d="M1363.241,410.534c0,0-19.918,1.616-33.376,1.616
			c-13.458,0-22.61-4.309-30.685-3.77c-8.075,0.539-25.84,3.232-25.84,3.232c27.726-1.588,100.202,7.401,136.197,4.31
			c20.457-2.155,30.147-4.31,19.919-4.848C1419.227,410.534,1363.242,410.534,1363.241,410.534z"/>
		<path id="path486750" style="fill:#DC9F5C;" d="M1322.866,1157.568c0,0-9.69-40.933,15.073-49.551
			c50.276-18.399,69.872,17.642,64.599,50.628C1402.539,1158.645,1347.63,1169.417,1322.866,1157.568z"/>
		<path id="path486752" style="fill:#F0B772;" d="M1370.239,1116.634c-28.81-4.866-34.729,6.824-35.53,32.316
			c0,0,33.377,7.54,48.45,0C1383.159,1124.175,1370.239,1116.634,1370.239,1116.634z"/>
		<path id="path488347" style="fill:#DC9F5C;" d="M1360.549,1127.406c0,0-8.613,0-10.767,6.463
			c-1.692,9.366,15.743,5.618,19.38,5.386C1369.163,1139.256,1367.009,1128.484,1360.549,1127.406L1360.549,1127.406z"/>
		<path id="path490059" style="fill:#DC9F5C;" d="M1688.93,1008.915c-24.545,4.394-31.734,34.937-27.996,52.785
			c0,0,34.453,1.077,36.606-9.695C1699.693,1041.232,1695.39,1009.992,1688.93,1008.915z M1682.555,1027.075
			c7.55-0.032,8.529,19.545,8.529,19.545C1666.808,1052.65,1663.219,1039.589,1682.555,1027.075L1682.555,1027.075z"/>
		<path id="path490177" style="fill:#DC9F5C;" d="M957.819,1009.231c-8.73-0.615-16.322,29.422-17.164,29.842l44.142,16.16
			C990.208,1034.782,985.49,1014.444,957.819,1009.231L957.819,1009.231z M959.495,1018.069
			c10.398,1.626,21.954,13.216,19.38,25.315c0,0-10.229-2.691-29.07-9.155C951.42,1030.998,959.495,1018.069,959.495,1018.069
			L959.495,1018.069z"/>
		<path id="path490792" style="fill:#794529;" d="M1194.073,900.662c-2.355,0.097-4.979,1.613-7.94,4.844
			c-52.091,75.913-86.658,108.161-188.866,123.878c3.529,10.389,4.176,23.482-0.757,39.935c54.814,0,73.086-9.14,133.991-6.093
			c60.905,3.047,70.04-9.14,91.357,21.328c21.317,30.468,85.267,79.217,85.267,79.217s-6.734-28.412,3.178-50.977
			c-28.541-30.454-73.185-80.824-83.262-108.19C1213.853,968.788,1210.56,899.985,1194.073,900.662z"/>
		<path id="path494927" style="fill:#794529;" d="M1358.059,875.18c-24.305,0.809-5.855,77.248,2.489,129.425
			c4.699,29.384,20.287,54.903,33.49,72.044c-2.484-6.943-0.643-11.364,15.103-10.372c0,0,49.482,10.658,98.968,15.229
			c38.356,3.542,143.128,0,143.128,0s-4.2-20.224-1.105-41.618c-61.349-11.548-194.347-39.096-220.68-65.442
			C1393.781,939.248,1389.381,877.21,1358.059,875.18L1358.059,875.18z"/>
		<path id="path495045" style="fill:#794529;" d="M1535.516,420.358c0,0-19.236,5.362-42.534,11.067
			c1.049,69.12-17.918,324.02,1.071,370.672c0.003-8.623,8.617-172.357,21.537-204.673c4.824,283.905-53.372,306.592,75.366,383.485
			l-38.76-47.4c0,0,73.981,40.413,114.542,70.112c4.722-4.51,10.613-8.163,17.996-10.471
			c-79.176-54.842-143.124-67.028-152.26-118.823C1523.338,822.534,1535.516,420.358,1535.516,420.358z"/>
		<path id="path495163" style="fill:#794529;" d="M1154.866,426.457c0,0-3.051,216.319-6.096,280.301
			c-3.045,63.982,19.446,167.354-66.992,216.318c-35.652,20.196-124.853,70.075-124.853,70.075s7.848,2.095,16.841,7.738
			c38.003-20.567,115.467-65.225,115.467-65.225l-47.376,32.314c0,0,73.212-28.005,90.438-49.549
			c52.626-48.161,38.696-327.614,38.76-364.089c0,0,10.769,36.622,25.842,142.187c1.773-28.379-4.925-199.846-7.449-262.147
			C1177.816,432.2,1166.176,429.626,1154.866,426.457z"/>
		<path id="path501305" style="fill:#9C5935;" d="M1241.653,484.343c2.12,79.378,0,159.615,0,239.171
			c0,3.089-0.774-6.144-1.523-9.14c-7.863-38.779-7.186-80.561-16.749-118.824c-3.989,66.102-6.091,132.35-6.091,198.04
			c-23.513-34.293-24.196-76.351-35.02-114.254c1.117,121.615,40.61,259.748,108.106,361.042
			c-8.194-38.562-16.749-77.888-16.749-117.3c7.953,26.262,19.172,55.121,30.452,77.693c-3.424-33.195,1.523-66.368,1.523-99.02
			c10.487,28.635,13.846,60.732,33.498,85.309c-22.217-117.85-5.779-247.964-25.885-368.658
			c-10.971,77.137-1.523,156.276-1.523,233.077c-13.239-56.18-15.226-114.607-15.226-172.142
			c-13.568,44.057-10.658,91.087-10.658,137.104C1255.043,761.057,1276.939,519.647,1241.653,484.343L1241.653,484.343z"/>
		<path id="path505400" style="fill:#9C5935;" d="M1378.689,682.382c-11.537,79.237,10.886,161.285,39.588,233.077
			c-5.774-25.137-6.09-50.292-6.09-76.169c9.274,55.052,38.806,102.808,73.086,137.104c-5.458-20.874-15.532-39.616-19.794-60.935
			c21.226,43.222,72.882,69.212,111.151,88.356c-52.531-36.075-80.699-106.1-80.699-169.095
			c-12.206,27.374-7.108,57.367-1.523,85.309c-61.708-104.598-25.885-292.105-25.885-411.313
			c-22.159,75.061-28.93,158.65-28.93,237.648c-17.496-59.75-19.794-126.012-19.794-188.899
			c-9.876,69.811-6.09,142.243-6.09,213.273c-15.034-40.454-15.226-88.602-15.226-132.534c-2.246,38.904-9.379,99.57-1.522,131.011
			C1385.813,745.427,1373.201,709.832,1378.689,682.382L1378.689,682.382z"/>
	</g>
	<g id="g557239">
		<path id="path513866" style="fill:#8A4F2F;" d="M1548.339,1579.557c-7.463,0.072-13.836,0.482-18.809,1.228
			c-105.927,24.889-227.736-27.2-369.997,31.84c-61.961,45.115-92.987,47.389-146.839,79.301l-54.071-75.419
			c-0.001,0.001,0,129.47,0,129.472c-7.96,33.828,33.826,55.741,65.645,91.548v0.006h0.006
			c90.748,78.025,307.559,76.931,423.716,95.537c114.276,31.004,238.052-60.189,332.204-113.444v-0.006
			c73.621-23.888,113.439-31.868,111.388-93.622c0,0,0-129.391,0-129.391l-64.067,53.806
			C1751.515,1609.654,1630.776,1576.817,1548.339,1579.557z"/>
		<path id="path520166" style="fill:#794529;" d="M1694.873,1598.714l-431.241,128.089l-11.05,183.484l159.943,18.641l8.648-216.199
			c11.407-2.436,181.684-46.928,188.484-45.033l22.927,236.309l147.603-84.381v-0.006c15.575-5.06,29.545-9.399,42.018-13.69
			c-4.123-51.344-8.881-113.449-12.691-163.626C1770.594,1626.231,1740.011,1608.614,1694.873,1598.714L1694.873,1598.714z"/>
		<path id="path521766" style="fill:#603721;" d="M1599.49,1582.453c-70.787,2.058-166.68,5.885-234.585,6.432l-61.888,149.174
			l-6.818,177.31l87.39,10.184l9.451-212.825l244.747-59.107l32.658,228.735l109.743-62.733v-0.006
			c2.373-0.777,4.411-1.416,6.716-2.157c-2.589-57.984-6.321-136.805-8.808-188.682
			C1729.543,1603.55,1663.002,1589.019,1599.49,1582.453L1599.49,1582.453z"/>
		<path id="path522672" style="fill:#A96541;" d="M1096.939,1650.58c-24.849,10.735-58.039,26.627-84.247,41.344l-5.419-7.556
			l-7.65,128.645c8.221,7.575,16.733,15.618,24.643,24.512v0.006h0.006c11.453,12.891,35.81,25.517,64.864,36.502l33.834-217.593
			L1096.939,1650.58z"/>
		<path id="path528049" style="fill:#A96541;" d="M1570.272,1735.248l-115.346,33.776l8.023,166.484
			c30.724,3.86,72.468,2.196,109.404-6.598L1570.272,1735.248z"/>
		<path id="path505537" style="fill:#F0BA70;" d="M1426.091,1457.286c0,0-212.848-13.932-266.558,25.873
			c-66.409,56.647-175.679,64.018-200.918,133.34c-7.952,33.839,33.822,55.732,65.65,91.556
			c98.746,84.333,305.092,67.784,423.707,95.531c163.844,29.238,190.024-61.353,332.199-113.451
			c73.605-23.874,113.39-31.835,111.401-93.532c-1.989-61.697-69.624-75.629-131.289-105.482
			c-61.666-29.854-190.966-45.775-230.751-39.805C1489.747,1457.286,1451.951,1461.266,1426.091,1457.286z"/>
		<path id="path531313" style="fill:#E9B069;" d="M1297.064,1483.058c-39.027,1.745-49.533-0.895-97.747,23.979
			c-23.87,15.925-73.601,29.856-103.439,47.768c-161.235,64.501,8.093,174.431,121.346,177.132
			c73.6,3.981,177.041,7.959,224.782,27.862c47.742,19.902,123.33,7.963,165.104-27.861c41.774-35.824,89.518-57.716,143.227-81.598
			c53.71-23.883,97.473-35.823,85.537-65.677c-28.068-57.924-225.665-116.392-290.429-97.523
			C1519.587,1493.605,1370.282,1482.995,1297.064,1483.058z M1320.163,1506.294c72.103-5.233,148.061,15.561,223.293,14.682
			c45.986-3.867,268.261-1.005,210.86,89.558c-25.865,23.882-101.451,39.802-157.15,81.597
			c-55.699,41.795-97.472,45.78-151.181,29.858c-53.709-15.922-167.097-25.875-226.774-23.885
			c-59.677,1.99-127.314-39.804-145.217-65.677c-17.903-25.873,11.939-39.807,43.766-57.719
			c31.828-17.912,151.181-61.695,151.181-61.695C1277.893,1508.038,1297.785,1506.544,1320.163,1506.294L1320.163,1506.294z"/>
		<path id="path541685" style="fill:#E9B069;" d="M1329.27,1532.366c-12.424-0.072-22.285,0.675-28.501,2.542
			c5.412,3.72-227.626,58.493-149.193,101.498c25.862,17.916,131.292,23.885,171.077,29.856
			c39.785,5.971,123.33,27.863,165.104,15.921c41.774-11.941,101.45-49.755,149.191-65.677
			c47.742-15.922,103.439-17.913,65.644-37.815c-37.796-19.902-61.666-17.913-117.364-19.903
			C1538.232,1557.107,1396.358,1532.761,1329.27,1532.366z M1345.551,1555.493c17.753-0.19,39.203,5.535,60.649,11.257
			c29.839,7.961,111.394,13.931,177.038,13.931s47.747,5.972,15.919,21.894c-31.828,15.922-83.551,35.824-129.304,51.746
			c-45.752,15.922-149.194-27.867-190.967-27.867c-41.774,0-79.57-9.948-69.623-23.879
			C1233.974,1582.959,1330.091,1556.207,1345.551,1555.493z"/>
		<path id="path547156" style="fill:#E9B069;" d="M1346.522,1576.699c0,0-87.526,17.912-65.645,23.883
			c21.882,5.971,75.591,0,113.386,11.942c37.796,11.941,89.516,9.951,109.408-3.98c19.892-13.932,21.881-15.922-29.839-17.912
			C1422.112,1588.641,1370.392,1574.709,1346.522,1576.699L1346.522,1576.699z"/>
		<path id="path547914" style="fill:#E8AC62;" d="M1048.136,1682.181l302.364-85.58
			C1350.5,1596.601,1129.695,1678.201,1048.136,1682.181z"/>
		<path id="path547916" style="fill:#E8AC62;" d="M1442.005,1608.543l85.537,175.14
			C1527.542,1783.683,1493.725,1638.396,1442.005,1608.543z"/>
		<path id="path547918" style="fill:#E8AC62;" d="M1499.693,1598.592c9.946,0,260.59-29.854,302.364-17.912
			C1730.444,1596.602,1543.456,1612.523,1499.693,1598.592z"/>
		<path id="path547920" style="fill:#E8AC62;" d="M1364.425,1588.641c-13.925-11.941-143.225-87.57-143.225-87.57
			S1326.63,1522.963,1364.425,1588.641z"/>
		<path id="path555539" style="fill:#F6D8AD;" d="M1017.237,1701.422c88.059,51.951,342.569,100.093,474.646,95.268
			c81.944,1.157,127.014-5.986,188.674-57.954l0,0c48.035-35.829,85.529-44.712,86.032-42.701
			c0.502,2.012-33.134,13.685-79.364,51.271l0,0c-28.598,26.685-81.01,61.673-128.947,62.078
			C1407.292,1826.149,1116.319,1784.442,1017.237,1701.422L1017.237,1701.422z"/>
	</g>
	<g id="g611347" transform="translate(6.747901,4.2934592)">
		<path id="path557274" style="fill:#FED392;" d="M231.3,1237.062l-12.92,547.214l254.09,133.572l4.307-564.45L231.3,1237.062z"/>
		<path id="path560431" style="fill:#FBC46E;" d="M476.777,1353.399l-4.306,564.449l245.477-105.565v-525.671L476.777,1353.399z"/>
		<path id="path569610" style="fill:#FEDBA6;" d="M476.777,1353.399l241.171-66.786L466.011,1172.43L231.3,1237.062
			L476.777,1353.399z"/>
		<path id="path588772" style="fill:#E09F49;" d="M682.898,1296.321l-13.16,3.64c-8.486,109.591-29.895,252.266-79.219,359.151
			c-26.151,60.626-86.726,161.579-72.674,239.224l9.659-4.155c-1.623-89.041,40.239-135.76,78.508-228.429
			C656.117,1542.202,679.238,1411.902,682.898,1296.321L682.898,1296.321z M628.631,1311.344l-7.815,2.167
			c0.953,111.573-63.078,211.847-108.832,313.702c-49.866,95.032-37.598,190.053-39.511,290.636l8.101-3.484
			c0.253-55.078-0.549-115.568,9.628-171.533C514.586,1606.649,645.581,1465.417,628.631,1311.344z M563.16,1329.473l-11.888,3.292
			c-15.318,76.553-24.628,173.127-76.198,243.677l-0.199,26.439C533.669,1525.484,556.912,1428.799,563.16,1329.473L563.16,1329.473
			z M717.946,1374.594c-47.118,135.668-96.434,329.398-107.534,483.931l15.637-6.726c13.415-163.729,41.912-226.671,83.571-413.378
			c3.374-14.462,5.96-26.51,8.326-37.804V1374.594z M717.946,1593.546c-34.252,86.735-50.259,132.995-50.921,240.633l14.023-6.031
			c3.793-64.294,11.297-127.272,36.898-194.724C717.946,1633.425,717.946,1593.546,717.946,1593.546z"/>
		<path id="path602662" style="fill:#E09F49;" d="M251.079,1246.436c-0.482,162.849,20.362,264.678-25.328,450.798
			c-1.897,6.743-3.844,12.952-5.766,19.029l-0.639,27.11c69.904-133.074,50.776-341.02,44.558-490.856L251.079,1246.436z
			 M304.682,1271.838c-57.36,198.677,99.052,403.255,82.878,601.375l10.851,5.701c26.459-201.294-125.827-391.437-86.751-603.766
			L304.682,1271.838z M356.428,1296.364c-36.504,106.405-4.725,234.161,33.447,340.849c16.874,47.434,50.088,82.538,62.497,119.817
			c22.259,64.646,13.255,133.315,13.607,157.404l6.493,3.416l1.068-140.486c-4.103-21.189-12.858-42.349-24.061-60.511
			c-32.861-50.47-53.373-100.297-67.013-157.375c-18.748-41.603-38.702-211.939-20.154-260.326L356.428,1296.364z M403.159,1318.511
			c-12.166,80.44,15.15,217.283,71.754,279.152l0.161-20.992c-9.559-17.396-20.821-38.36-31.597-62.604
			c-20.219-66.191-25.058-103.571-30.759-191.029L403.159,1318.511z M300.43,1593.248c-15.944,1.142-22.313,21.57-22.887,30.792
			c-13.206,59.324-16.93,126.788-23.893,178.781l13.266,6.975c11.985-57.54,9.489-122.563,25.215-182.104
			c3.595-9.241,4.156-18.859,8.281-18.924c14.12,10.527,19.958,32.129,24.652,49.001c8.436,36.077,30.296,153.653,26.095,196.309
			l9.634,5.062C370.289,1821.761,352.571,1594.82,300.43,1593.248z M305.65,1706.984c-3.261,2.412-5.69,4.214-7.474,5.242
			c-8.028,28.036-8.125,73.761-9.572,108.967l12.738,6.695c2.559-16.09,3.679-32.318,5.283-51.406
			c0.877,18.268,0.727,38.076,1.241,54.834l14.582,7.67c1.827-26.122-1.791-57.461-2.285-85.217
			c-0.912-14.18-0.209-28.619-4.215-42.723C313.72,1709.801,309.071,1707.84,305.65,1706.984z"/>
		<path id="path603079" style="fill:#EFBD78;" d="M436.773,1193.571c-47.487-0.346-144.458,16.323-182.584,54.337l5.748,2.726
			c17.001-12.805,48.568-18.966,72.884-26.289c104.032-32.992,242.038-1.875,339.865,41.754l-128.534-58.256
			C506.733,1199.106,477.034,1193.697,436.773,1193.571L436.773,1193.571z M448.35,1230.531
			c-33.419-3.176-122.019,13.766-142.241,41.984l7.176,3.403c101.482-53.022,256.796-27.169,350.22,25.768l12.415-3.434
			C623.381,1250.044,519.61,1233.782,448.35,1230.531L448.35,1230.531z M472.094,1265.628c-41.844,0.974-89.51,6.382-120.353,28.513
			l15.507,7.354c41.158-19.546,90.185-23.944,135.537-17.96c2.507,0.292,29.866,2.522,57.73,10.041
			c26.766,7.388,39.923,13.875,53.075,21.936l7.443-2.062C586.333,1273.819,524.174,1266.041,472.094,1265.628z M690.105,1273.993
			c7.862,4.399,15.746,9.844,22.024,14.229l5.817-1.609L690.105,1273.993z M465.918,1303.37
			c-9.723-1.368-49.788,5.722-59.525,16.669l12.8,6.068c37.152-8.931,85.159-9.438,118.919,10.303l15.482-4.285
			C536.173,1309.989,493.155,1305.821,465.918,1303.37L465.918,1303.37z"/>
		<path id="path606362" style="fill:#FFEACB;" d="M242.104,1242.679c0,0,69.757,28.827,106.152,43.999
			c36.395,15.172,113.734,63.723,113.734,63.723S293.663,1286.678,242.104,1242.679z"/>
		<path id="path611141" style="fill:#FFEACB;" d="M703.107,1289.713c0,0-163.778,39.448-207.755,60.689
			C590.889,1345.85,694.008,1306.402,703.107,1289.713z"/>
		<path id="path611256" style="fill:#FFEACB;" d="M472.645,1371.331c0,0-6.434,188.819,2.145,354.035
			C487.658,1568.733,489.802,1394.934,472.645,1371.331L472.645,1371.331z"/>
	</g>
	<g id="g630735" transform="translate(-0.86142398,-3.4757381)">
		<g id="g630718" transform="translate(6.0841844,10.140307)">
			<path id="path630710" style="fill:#FED392;" d="M132.804,907.708l263.863,145.652l727.899-233.651L851.605,686.195
				L132.804,907.708z"/>
			<path id="path630712" style="fill:#F2BC62;" d="M132.804,907.708l-3.033,28.827l265.38,154.756l1.516-37.93L132.804,907.708z"/>
			<path id="path630714" style="fill:#C2791D;" d="M396.668,1053.36l-1.517,37.93l734.338-241.382l-4.922-30.199L396.668,1053.36z"
				/>
			<path id="path630716" style="fill:#F2BC62;" d="M851.604,686.192c-126.583,29.584-220.436,149.589-349.563,175.557
				c-98.913,19.853-227.942,23.989-297.089,85.789l8.02,4.428c76.788-56.682,196.636-61.739,291.211-79.495
				c118.776-20.105,224.752-139.054,351.684-184.192L851.604,686.192z M926.381,722.767
				c-66.581,14.099-132.283,32.072-196.601,54.033c-26.916,7.39-49.55,25.36-69.742,43.935
				c-12.214,12.083-35.711,33.563-20.636,51.809c36.591,26.865,172.41-29.974,215.026-44.962
				c23.335-8.92,45.409-19.15,67.302-31.374c23.404-13.127,47.314-25.036,67.769-42.568l-10.317-5.043
				c-21.514,16.897-46.904,30.151-71.065,43.338h0.013c-16.561,14.231-287.2,118.331-260.013,59.878
				c10.414-17.665,28.905-31.63,45.379-44.184c12.525-10.162,24.756-15.222,40.009-20.097
				c51.732-17.575,104.578-32.236,157.753-44.755c-42.057,13.948-82.565,28.356-121.39,47.175
				c-22.484,12.189-45.002,22.881-65.074,38.364c-11.06,9.902,8.084,14.15,15.724,12.638c35.754-3.276,74.174-17.087,104.883-27.586
				c37.044-13.606,65.726-24.099,96.553-41.742c4.545-3.117,8.84-4.44,8.547-11.708c-4.931-1.683-10.078,0.763-14.73,1.988
				c-26.06,7.501-51.778,16.617-77.079,23.818c-32.112,7.114-43.671,16.913-42.386,17.122
				c14.269-7.147,81.268-21.796,106.901-30.128c-56.459,24.303-119.996,49.699-183.534,57.816
				c35.14-22.368,73.564-40.797,112.619-55.107c40.925-15.158,83.525-32.68,127.317-36.408L926.381,722.767z M676.27,740.225
				l-21.379,6.59c-14.811,13.391-31.71,26.46-51.548,38.071c-123.265,73.816-300.242,57.649-426.952,146.883l5.68,3.136
				C328.266,847.128,556.425,872.309,676.27,740.225z M1024.436,770.732c-37.354,27.718-79.89,45.991-126.566,61.375
				c-61.196,19.079-128.807,50.365-195.031,58.92c-153.143,15.144-326.645-3.474-449.945,82.975l2.471,1.36
				c5.693-4.065,12.934-8.412,22.651-13.055c52.983-22.046,97.761-39.542,168.356-47.674c83.305-9.806,168.185-2.207,257.783-13.055
				c69.842-8.752,127.356-36.751,197.134-58.349c47.178-15.566,95.271-34.92,134.73-66.833L1024.436,770.732z M1064.077,790.122
				c-67.865,55.215-175.587,60.796-233.722,124.027l22.67-7.279c10.92-8.114,22.454-15.328,35.222-22.563
				c60.76-30.108,127.643-37.926,184.21-90.086L1064.077,790.122z M1092.098,803.829c-19.835,18.049-41.175,32.805-64.087,46.872
				l37.873-12.154c12.523-9.645,25.507-19.675,36.904-29.489L1092.098,803.829z M711.939,836.1
				c-0.088,0.273-0.272,0.429-0.534,0.497C711.522,836.515,711.726,836.296,711.939,836.1L711.939,836.1z M489.627,935.682
				c-37.848-4.933-160.969,21.496-201.014,58.033l6.388,3.528C403.469,930.369,558.481,945.291,678.183,963
				c-0.001-0.003,24.73-7.94,24.73-7.94C630.053,947.122,562.329,935.507,489.627,935.682z M575.521,959.86
				c-83.928,2.431-180.803,21.526-255.033,51.449l5.978,3.298c84.695-26,216.347-55.495,306.835-37.202l17.896-5.745
				C628.571,959.968,601.173,960.134,575.521,959.86L575.521,959.86z M483.165,985.858c-49.183,1.555-96.008,18.441-139.826,38.065
				l10.932,6.037c46.765-18.939,101.131-39.886,151.676-30.447c13.792,2.561,26.784,3.869,40.53,5.76c0,0,26.072-8.366,26.072-8.366
				C542.647,994.355,512.873,987.756,483.165,985.858L483.165,985.858z M511.447,1009.279c-47.085,0.119-93.237,9.43-142.681,28.681
				l12.384,6.838c48.568-17.969,86.834-25.253,129.422-27.998c0,0.001,19.591-6.291,19.591-6.291
				C524.467,1009.865,518.327,1009.395,511.447,1009.279z"/>
		</g>
		<g id="g630462" transform="rotate(-3.6822925,296.77097,-16.444036)">
			<path id="path630454" style="fill:#FED392;" d="M83.918,858.739l263.859,145.644l727.908-233.674L802.727,637.203L83.918,858.739
				z"/>
			<path id="path630456" style="fill:#F2BC62;" d="M83.918,858.739l-3.034,28.827l265.375,154.747l1.518-37.93L83.918,858.739z"/>
			<path id="path630458" style="fill:#C2791D;" d="M347.778,1004.382l-1.518,37.93l734.347-241.405l-4.921-30.199L347.778,1004.382z
				"/>
			<path id="path630577" style="fill:#F2BC62;" d="M802.724,637.202L694.57,670.539c39.924-4.52,75.644-16.113,110.91-31.99
				L802.724,637.202z M850.125,660.386c-59.309,23.934-173.957,91.733-223.631,31.133l-9.811,3.022
				c54.139,74.134,180.099-1.756,245.703-28.157L850.125,660.386z M904.352,686.909c-40.091,13.208-79.03,30.425-115.022,52.201
				c-11.437,7.615-24.531,12.704-32.271,25.586c-3.901,16.642,22.737,13.259,31.667,12.476
				c60.712-8.567,119.016-31.364,170.185-63.581l-11.446-5.597c-52.136,29.877-117.11,58.589-178.137,58.326
				c43.747-33.653,96.862-55.408,149.214-72.473L904.352,686.909z M993.303,730.417c-107.892,79.586-269.245,97.21-381.691,17.575
				l-0.012-0.001c-15.771-11.137-31.747-21.744-41.703-39.029l-10.04,3.094c44.426,61.148,126.114,91.499,197.608,97.815
				c87.776,2.106,178.998-19.432,246.325-74.33L993.303,730.417z M1027.726,747.251c-21.838,22.008-44.104,36.89-63.523,59.243
				c8.478-2.058,9.185-3.867,15.285-9.504c17.734-15.759,35.107-29.575,53.544-47.145L1027.726,747.251z M509.556,727.558
				l-26.813,8.263c23.947,5.739,60.325,19.383,56.076,49.221c-8.542,5.876-19.567,7.913-29.812,10.89
				c-64.978,15.809-131.768,25.406-198.006,34.749c-15.804,1.665-30.918,10.051-45.363,4.019
				c9.065-16.152,24.228-29.285,36.635-43.255l-21.361,6.579c-8.627,9.602-17.634,18.802-24.559,30.072
				c-6.724,6.879,3.004,19.189,11.831,19.157c6.061,0.977,11.862,0.529,17.152-0.24c51.561-10.404,102.697-15.405,153.858-25.449
				c32.61-6.28,65.452-11.366,96.864-22.891c16.409-3.835,16.622-22.342,10.081-35.442
				c63.846,44.659,130.725,86.817,205.119,111.626l19.125-6.144C673.777,842.156,594.514,778.274,509.556,727.558L509.556,727.558z
				 M453.163,744.939l-11.417,3.516c4.038,3.71,11.964,10.69,10.999,14.866c0.503,5.629-11.794,12.911-19.534,14.539
				c-23.683,3.859-58.843,9.966-81.038,1.319c-0.06,0.215-0.189-0.277-0.021-0.07c0.472-1.193,0.99-2.365,1.545-3.516l-11.842,3.65
				c2.005,23.085,64.14,12.5,80.26,11.141C446.153,789.592,479.999,769.193,453.163,744.939L453.163,744.939z M767.44,768.482
				c-0.005,0.137-0.035,0.239-0.122,0.26C767.327,768.661,767.41,768.566,767.44,768.482z M245.912,808.81l-7.787,2.405
				c-22.826,30.46-52.497,57.995-79.493,88.766l5.322,2.938C191.619,870.983,222.798,841.969,245.912,808.81z M199.082,823.247
				l-5.039,1.555c-12.704,23.947-36.373,50.561-55.451,64.119l0.408,0.225C164.288,872.657,183.056,851.095,199.082,823.247
				L199.082,823.247z M517.322,850.948c-95.345-4.725-185.319-3.029-266.935,36.104c-20.487,10.178-39.981,20.648-60.212,30.339
				l7.136,3.938c18.87-9.005,36.964-18.53,56.202-27.936c100.526-46.018,209.397-39.35,321.63-28.464
				c32.545,4.511,97.718,7.598,122.127,27.255l8.835-2.836C690.524,859.723,553.291,855.228,517.322,850.948L517.322,850.948z
				 M495.332,870.101c-94.405-2.479-194.539,18.578-281.838,60.161l10.951,6.045c95.824-39.771,204.84-69.064,307.832-50.196
				c40.784,7.118,81.081,15.33,122.163,19.828c0,0,24.359-7.824,24.359-7.824C617.139,895.062,556.75,878.192,495.332,870.101
				L495.332,870.101z M574.065,908.738c-106.529-8.28-217.917,7.124-319.748,44.06l13.588,7.496
				c106.344-38.275,219.841-49.843,333.479-37.326c0,0,23.202-7.45,23.202-7.45C608.076,911.58,591.024,910.004,574.065,908.738
				L574.065,908.738z M529.468,937.004c-76.49-2.225-153.676,13.867-224.187,43.924l13.155,7.263
				c63.674-25.535,133.158-40.411,203.215-39.629c0,0,27.769-8.911,27.769-8.911C542.928,938.482,536.297,937.439,529.468,937.004z"
				/>
		</g>
		<g id="g630452">
			<path id="path611462" style="fill:#FED392;" d="M65.803,795.978L329.666,941.63l727.899-233.651L784.603,574.464L65.803,795.978z
				"/>
			<path id="path613798" style="fill:#F2BC62;" d="M65.803,795.978l-3.033,28.827l265.38,154.756l1.517-37.93L65.803,795.978z"/>
			<path id="path615025" style="fill:#C2791D;" d="M329.666,941.63l-1.516,37.93l734.338-241.382l-4.922-30.199L329.666,941.63z"/>
			<path id="path629658" style="fill:#F2BC62;" d="M784.602,574.462C658.02,604.046,564.166,724.051,435.04,750.019
				c-98.913,19.852-227.942,23.989-297.089,85.789l8.02,4.428c76.788-56.682,196.636-61.739,291.211-79.495
				c118.776-20.105,224.752-139.054,351.684-184.192L784.602,574.462z M859.379,611.037
				c-66.581,14.099-132.283,32.072-196.601,54.033c-26.916,7.39-49.55,25.36-69.742,43.935
				c-12.214,12.083-35.711,33.563-20.636,51.809c36.591,26.866,172.41-29.974,215.026-44.962
				c23.335-8.92,45.409-19.15,67.302-31.374c23.404-13.127,47.314-25.036,67.769-42.568l-10.317-5.043
				c-21.514,16.898-46.904,30.152-71.065,43.338h0.013c-16.561,14.231-287.2,118.331-260.013,59.878
				c10.414-17.665,28.905-31.63,45.379-44.184c12.525-10.162,24.756-15.221,40.009-20.097
				c51.732-17.575,104.578-32.235,157.753-44.755c-42.057,13.948-82.565,28.356-121.39,47.175
				c-22.484,12.189-45.002,22.881-65.074,38.364c-11.06,9.902,8.083,14.15,15.724,12.638c35.753-3.275,74.174-17.087,104.883-27.586
				c37.044-13.606,65.726-24.099,96.553-41.742c4.545-3.117,8.84-4.44,8.547-11.708c-4.931-1.683-10.078,0.763-14.73,1.988
				c-26.06,7.501-51.779,16.617-77.08,23.818c-32.112,7.113-43.67,16.913-42.386,17.122c14.269-7.147,81.268-21.796,106.901-30.128
				c-56.459,24.303-119.996,49.699-183.533,57.815c35.14-22.368,73.564-40.797,112.619-55.107
				c40.925-15.157,83.525-32.68,127.317-36.408L859.379,611.037z M609.269,628.495l-21.379,6.59
				c-14.811,13.391-31.71,26.46-51.548,38.072C413.077,746.972,236.1,730.805,109.39,820.039l5.68,3.136
				C261.265,735.398,489.423,760.579,609.269,628.495z M957.434,659.002c-37.354,27.718-79.891,45.991-126.566,61.375
				c-61.196,19.079-128.807,50.365-195.031,58.92c-153.143,15.144-326.645-3.474-449.945,82.975l2.471,1.36
				c5.693-4.065,12.934-8.412,22.651-13.055c52.983-22.046,97.761-39.542,168.356-47.674c83.305-9.806,168.185-2.207,257.783-13.055
				c69.842-8.752,127.356-36.751,197.135-58.349c47.178-15.566,95.271-34.92,134.73-66.833L957.434,659.002z M997.076,678.392
				c-67.865,55.215-175.587,60.796-233.722,124.028l22.67-7.279c10.92-8.114,22.454-15.328,35.222-22.563
				c60.76-30.108,127.643-37.926,184.21-90.086L997.076,678.392z M1025.097,692.099c-19.835,18.049-41.175,32.805-64.087,46.872
				l37.872-12.154c12.523-9.645,25.507-19.675,36.904-29.488L1025.097,692.099z M644.938,724.369
				c-0.088,0.273-0.272,0.429-0.534,0.497C644.52,724.784,644.724,724.566,644.938,724.369z M422.625,823.952
				c-37.848-4.933-160.97,21.496-201.014,58.033l6.388,3.528c108.469-66.873,263.481-51.951,383.183-34.243
				c-0.001-0.003,24.73-7.94,24.73-7.94C563.051,835.392,495.327,823.777,422.625,823.952z M508.52,848.13
				c-83.928,2.431-180.803,21.526-255.033,51.449l5.978,3.298c84.695-26,216.346-55.495,306.835-37.202l17.896-5.745
				C561.57,848.238,534.171,848.404,508.52,848.13z M416.163,874.128c-49.183,1.555-96.008,18.441-139.826,38.065l10.932,6.037
				c46.765-18.939,101.131-39.886,151.676-30.447c13.792,2.561,26.784,3.869,40.53,5.76c0,0,26.072-8.366,26.072-8.366
				C475.646,882.624,445.871,876.026,416.163,874.128L416.163,874.128z M444.445,897.548c-47.085,0.119-93.237,9.43-142.682,28.681
				l12.384,6.838c48.568-17.969,86.834-25.253,129.422-27.998c0,0.001,19.591-6.291,19.591-6.291
				C457.466,898.135,451.325,897.665,444.445,897.548z"/>
		</g>
	</g>
	<g id="g705766" transform="translate(-195.48055,128.88075)">
		<path id="path705758" style="fill:#EEA731;" d="M1119.265,1218.081c50.762,0.949,88.018,43.818,21.23,74.344l-63.691-42.482
			C1076.804,1249.942,1090.452,1212.012,1119.265,1218.081z"/>
		<path id="path705760" style="fill:#EEA731;" d="M1063.155,1316.7c0,0,30.33,22.758,66.724,31.862
			c43.747,11.781,197.312-77.131,97.053-98.619c-59.05,74.629-101.84,57.121-177.425,51.585L1063.155,1316.7z"/>
		<path id="path705762" style="fill:#F2BC62;" d="M1172.341,1239.322c-48.711-37.197-103.396,42.948-71.273,98.619
			C920.733,1306.575,1059.093,1146.593,1172.341,1239.322z"/>
		<path id="path705764" style="fill:#F2BC62;" d="M1263.328,1269.666c-18.505-25.801-70.641-42.942-80.373,13.657
			c-4.549,21.239,66.724,69.79,66.724,69.79C1249.679,1353.113,1205.703,1301.527,1263.328,1269.666z"/>
	</g>
	<g id="g630942" transform="matrix(-0.22815138,0.97362567,0.97362567,0.22815138,391.50352,-399.91925)">
		<path id="path630772" style="fill:#EEA731;" d="M700.858,832.21c-15.089,2.023-23.767,17.528-28.892,30.427
			c16.564,16.369,37.291,28.819,55.377,43.717C783.714,876.53,754.912,831.229,700.858,832.21z"/>
		<path id="path630774" style="fill:#EEA731;" d="M790.741,879.896c-14.169,15.034-28.311,31.888-48.402,38.947
			c-31.106,4.65-62.887-1.755-94.051-3.816c20.017,25.869,58.567,49.921,92.159,47.031c37.621-5.881,152.557-77.194,63.508-96.754
			C799.549,870.167,795.145,875.032,790.741,879.896L790.741,879.896z"/>
		<path id="path630770" style="fill:#F2BC62;" d="M690.552,824.959c-45.74-2.393-103.009,55.128-61.16,95.065
			c17.995,16.487,42.119,22.993,64.578,30.952c1.038-1.42,0.51-2.795-0.295-4.192c-10.886-24.455-12.53-54.794,2.204-77.865
			c11.013-20.983,39.439-33.418,58.476-14.93C738.085,836.429,714.878,824.311,690.552,824.959z"/>
		<path id="path630776" style="fill:#F2BC62;" d="M795.574,860.164c-15.826,1.227-28.3,15.389-30.199,30.706
			c-5.884,31.21,46.08,59.481,67.51,76.31c-24.539-24.857-29.193-65.418,6.422-82.446
			C827.648,872.753,813.46,859.594,795.574,860.164z"/>
	</g>
	<g id="g705756" transform="rotate(124.02438,314.37525,101.99479)">
		<path id="path636585" style="fill:#F1B858;" d="M-147.089-1367.651c88.176,14.139,109.899-60.808,124.422-130.464
			c-57.641-18.187-110.734-22.725-110.734-22.725S-69.703-1454.121-147.089-1367.651z"/>
		<path id="path634988" style="fill:#EEA731;" d="M-80.321-1455.635c0,0,9.098,15.165-1.525,31.851
			c-39.441-3.024-86.467-3.013-86.467-3.013s9.115-54.603,27.32-60.674C-122.788-1493.542-86.381-1489.001-80.321-1455.635
			L-80.321-1455.635z"/>
		<path id="path632652" style="fill:#F2BC62;" d="M-194.116-1364.607c-73.678-59.035,8.57-173.633,97.118-122.872
			c22.747,16.676,18.192,36.394,18.192,36.394c-40.79-76.413-92.91,54.896-34.909,81.909
			C-154.677-1353.999-194.116-1364.607-194.116-1364.607L-194.116-1364.607z"/>
	</g>
	<g id="g661865" transform="matrix(0.88777096,0,0,1,19.69925,0.50496267)">
		<path id="path644071" style="fill:#8A4F2F;" d="M160.306,129.782c-84.301,54.648-101.399,334.331,66.735,355.029
			c54.582,6.068,603.539-18.208,661.164-12.139c57.625,6.069,90.987,9.103,145.58-42.482
			c54.593-51.585,39.428-257.926-12.132-297.374C970.093,93.369,302.853,63.025,160.306,129.782z"/>
		<path id="path660795" style="fill:#7A4529;" d="M553.194,90.55c-171.021,3.776-348.751,0.958-404.667,51.654
			c94.387,9.863,243.445-22.225,318.102-30.633c24.263-3.033,118.285,1.523,118.285,1.523l-121.321,16.688
			c0,0,90.989,9.102,128.901,6.068c37.911-3.034,80.376-13.653,127.386-12.136c125.142,14.179,211.014,35.578,328.344,51.089
			c-7.184-19.048-16.117-33.99-26.575-41.99C992.648,110.625,768.845,91.317,553.194,90.55z"/>
		<path id="path656684" style="fill:#A15C37;" d="M646.743,155.912c0,0-154.41,4.289-193.013,10.726
			c-38.603,6.437-55.761,21.458-120.098,25.75c-64.338,4.291-75.059-10.729-130.819-8.583c-26.674,1.026-59.575,5.491-86.801,9.869
			c-11.917,26.044-21.39,59.631-20.665,100.123c54.544-0.63,47.078,16.304,113.903-4.859
			c57.904-15.017,109.371-19.309,141.539-8.581s55.763,0,109.378,0c53.615,0,113.661-36.475,113.661-36.475
			c58.661,35.906-239.763,68.697-231.618,70.808c0,0,167.281-8.58,195.16-6.434c27.88,2.146,60.051-15.022,96.509-34.333
			s42.89-36.479,77.204-42.916s235.901-2.143,235.901-2.143l15.016-40.767c0,0-351.715,4.292-388.173,12.875
			c-36.458,8.583-25.733,17.161-72.914,30.035c-47.181,12.874-147.977-4.292-147.977-4.292s60.047-6.432,81.493-17.16
			c21.446-10.728,30.025-19.316,57.904-27.898C520.215,173.072,646.742,155.912,646.743,155.912z"/>
		<path id="path652549" style="fill:#7A4529;" d="M955.564,310.397c0,0-169.423,75.1-304.532,75.1
			c51.47-6.437,132.967-51.499,132.967-51.499s-96.505,25.753-180.144,36.482c-83.639,10.728-319.548,10.726-319.548,10.726
			s49.33,4.293,122.246,21.458c-96.077,0-248.119-20.468-297.685-27.513c23.986,74.061,74.039,104.757,118.162,109.662
			c54.592,6.069,603.551-18.205,661.177-12.136c105.896,21.408,184.663-47.648,179.803-160.155L955.564,310.397z"/>
		<path id="path649684" style="fill:#633821;" d="M992.027,355.455c-35.086,6.568-355.162,84.954-434.364,69.374l146.983,5.726
			c-87.293,16.339-438.173,15.656-565.263,3.59c25.356,32.245,57.847,47.354,87.645,50.667
			c54.592,6.069,603.551-18.205,661.177-12.136c54.375,5.727,87.153,8.726,136.542-34.289L992.027,355.455z M557.664,424.829
			l-18.151-0.708C539.513,424.121,546.257,424.526,557.664,424.829z"/>
		<path id="path645668" style="fill:#EFB870;" d="M1001.426,124.517c-169.385,32.974-121.287,269.987-84.453,314.624
			c10.421,8.94-8.112,14.768-20.412,17.499c32.136-5.498,40.082,7.896,68.898,15.614c21.236-5.381,42.385-17.552,68.327-42.065
			C1086.183,374.594,1083.997,148.872,1001.426,124.517z M896.561,456.64c-5.809,0.806-9.622,1.807-9.622,1.807
			S891.155,457.84,896.561,456.64z"/>
		<path id="path647229" style="fill:#DC9F5C;" d="M1000.42,149.509c-119.151,43.973-91.973,172.977-68.233,250.343
			c6.059,21.239,16.673,18.201,16.673,18.201l-3.029,13.657c0,0,6.064,13.655,27.295,10.62
			c70.932-12.522,71.884-113.342,71.276-147.169l-15.165,6.068l13.651-16.694C1045.324,266.968,1030.29,161.198,1000.42,149.509z
			 M992.841,169.228c13.648,0,31.845,80.414,31.845,92.552s-3.032,15.175-6.065,28.83c-3.033,13.655,3.032,16.685,6.065,34.892
			c3.033,18.206-4.547,68.275-22.745,83.447c-37.258,33.213-52.233-21.068-51.56-34.892h-10.615l4.55-12.142
			C922.466,289.103,904.399,215.846,992.841,169.228z"/>
		<path id="path649566" style="fill:#DC9F5C;" d="M982.207,201.511c-3.864-0.037-26.182,22.051-27.277,58.752
			c0.529,34.028,15.682,163.489,43.977,101.653c4.548-16.691,4.546-33.38,1.513-57.655c-3.033-24.275,1.521-36.408,1.521-56.132
			C1001.941,230.254,991.976,201.162,982.207,201.511z M979.687,234.763c9.838,6.718,14.319,97.785,1.028,105.911
			c-9.102,4.552-6.073-48.549-7.589-74.342C972.629,237.879,975.812,237.29,979.687,234.763z"/>
		<path id="path659566" style="fill:#B4673D;" d="M139.075,239.022c42.212-32.177,124.735-12.061,169.844-18.202
			c21.229-4.556,104.634-28.831,104.634-28.831C312.408,244.657,257.516,253.573,139.075,239.022z"/>
		<path id="path660793" style="fill:#B4673D;" d="M407.488,255.711c87.919,6.112,112.737-25.05,189.556-39.453
			c30.33-3.029,175.91-9.098,175.91-9.098c-159.487,27.475-110.418,65.771-222.919,89.516c44.62-8.971,58.643-35.604,75.823-68.275
			C515.953,218.051,589.422,281.817,407.488,255.711L407.488,255.711z"/>
	</g>
	<g id="g698724" transform="translate(-10.351735)">
		<path id="path670670" style="fill:#EFB870;" d="M1105.714,203.99c0,0,396.751-120.16,480.39-126.597
			c143.688,17.165,255.207,12.874,255.207,12.874s-15.012,81.535-87.929,105.138c-72.916,23.602-227.327,60.079-246.628,62.224
			c-19.301,2.146-120.097,19.311-139.399,8.583C1348.055,255.483,1105.714,203.99,1105.714,203.99L1105.714,203.99z"/>
		<path id="path685339" style="fill:#DC9E60;" d="M1714.903,88.278c-67.71,44.185-144.315,63.894-219.943,88.884
			c-40.438,16.288-80.174,35.002-120.097,52.569c-36.478,16.06-50.717,18.461-89.004,7.516c-3.843-1.099-12.937-2.039-10.721-5.366
			c27.261-35.021,98.316-46.596,132.309-64.802c-58.722,16.562-122.591,26.107-171.547,65.51
			c62.826,14.325,121.451,28.048,133.054,34.339c35.909-13.586,61.833-35.127,108.85-58.648
			c51.95-25.988,113.309-42.208,170.032-59.331c-15.59,4.431-31.55,8.014-46.718,11.049c-5.802,1.161,10.608-5.267,16.084-7.509
			c13.84-5.665,27.953-10.542,41.821-16.092c27.131-10.858,47.57-32.598,72.623-47.326
			C1726.245,88.844,1720.606,88.569,1714.903,88.278z M1647.836,148.951c5.016-1.426,9.996-2.92,14.892-4.54
			C1657.82,145.938,1652.826,147.444,1647.836,148.951z M1662.728,144.41c44.026-13.155,82.493-28.182,121.017-53.84
			c-6.856-0.098-14.414-0.269-22.285-0.478C1717.47,115.06,1694.765,134.894,1662.728,144.41z M1407.447,167.08
			c4.099-0.14,8.904,0.178,8.163-2.789C1415.529,163.966,1412.125,165.232,1407.447,167.08z M1498.307,116.593
			c-1.275-0.111-3.734,1.717-6.363,3.764C1497.052,118.781,1501.294,118.742,1498.307,116.593z M1491.945,120.356
			c-112.197,30.933-222.634,40.476-322.962,96.502v-4.285c-1.452,1.453-2.731,2.869-3.898,4.267
			c7.676,1.679,14.934,3.268,23.415,5.142c73.859-44.309,161.16-57.677,243.193-81.296
			C1451.909,134.873,1474.554,133.223,1491.945,120.356z"/>
		<path id="path683464" style="fill:#B8693F;" d="M1586.108,77.391c-83.639,6.437-480.393,126.599-480.393,126.599
			s9.524,2.052,12.533,2.695c0.358-0.557,0.726-1.096,1.074-1.677c0,0,299.897-84.579,472.528-126.971
			C1589.919,77.813,1588.05,77.623,1586.108,77.391z M1841.314,90.266c0,0-5.404,0.156-13.39,0.292
			c-56.073,28.928-324.465,116.351-348.376,122.475l40.66,40.152c61.136-7.744,168.564-38.615,233.176-57.775
			C1826.3,171.804,1841.314,90.266,1841.314,90.266z"/>
		<path id="path666655" style="fill:#8A4F2F;" d="M1348.055,399.243c43.826,39.65,475.957-170.748,458.943-165.216
			c0,0,36.458-72.953,34.314-143.76c-94.362,60.079-343.135,120.157-343.135,120.157l-154.411,94.409L1348.055,399.243z"/>
		<path id="path694182" style="fill:#7A4529;" d="M1839.837,122.735c-64.357,36.904-181.365,104.234-235.504,137.039
			c50.398-5.364,178.003-65.442,178.003-65.442c-65.996,64.019-390.631,160.116-435.314,182.272l1.031,22.638
			c43.828,39.656,475.957-170.746,458.946-165.217C1806.999,234.025,1833.121,181.741,1839.837,122.735z"/>
		<path id="path661900" style="fill:#DC9E60;" d="M1105.716,203.987c8.289,121.389,103.619,207.484,255.213,197.396
			c72.91-6.432,130.814-109.424,137.248-190.959C1403.814,227.589,1105.716,203.987,1105.716,203.987z"/>
		<path id="path664782" style="fill:#B8693F;" d="M1105.714,203.99c8.294,121.381,103.625,207.483,255.213,197.396
			c72.91-6.432,130.816-109.426,137.25-190.962c-5.535,1.007-11.794,1.869-18.629,2.609
			c-22.372,76.47-12.251,134.156-110.045,175.487c-60.052,19.307-150.124-19.318-193.016-55.794
			c-30.456-25.9-48.962-91.664-57.166-127.717C1110.665,204.374,1105.714,203.99,1105.714,203.99z"/>
		<path id="path691082" style="fill:#DC9E60;" d="M1628.599,81.925c-47.913,30.097-119.389,65.381-166.88,88.804
			c23.092,5.778,144.928-54.791,205.522-85.469C1654.798,84.32,1641.877,83.199,1628.599,81.925z"/>
		<path id="path692477" style="fill:#EFB870;" d="M1162.359,207.958c-12.02,82.051,96.952,176.596,173.901,151.595
			c7.38-3.697-16.76,0.219-24.664-2.154c-50.071-12.418-118.935-41.327-136.184-94.409c-1.331-8.003,1.335-16.672,0.002-24.675
			c-1.68-10.083-4.317-20.065-3.439-29.743C1168.641,208.364,1165.497,208.161,1162.359,207.958z M1202.286,210.387
			c-3.558,15.516-2.77,31.761,3.154,45.096c5.722,12.882,2.677-19.871,14.811-44.115
			C1214.165,211.042,1208.07,210.717,1202.286,210.387z M1243.871,212.573c-3.445,46.793,26.097,38.207,54.858,22.526
			c1.863-1.332,7.894-12.331,11.129-19.825c-2.818-0.09-5.636-0.176-8.448-0.273c-15.076,11.271-41.192,29.799-45.489-1.863
			C1251.87,212.952,1247.848,212.766,1243.871,212.573z M1473.98,213.598c-9.916,0.933-20.92,1.627-32.77,2.118
			c-18.569,94.129-57.533,96.601-131.758,110.57c-4.167,2.09,7.513,5.677,11.796,7.514
			C1389.395,352.708,1462.489,278.067,1473.98,213.598z M1329.728,215.852c-31.318,46.668-58.431,64.164-104.99,55.721
			c-1.465-0.313-16.24-6.596-15.009-5.364c12.768,12.774,45.435,10.394,61.12,8.583c38.321-3.897,74.962-18.175,86.273-58.381
			C1348.064,216.272,1338.926,216.088,1329.728,215.852z M1405.758,216.572c-4.664,0.049-9.387,0.079-14.184,0.087
			c-11.434,79.366-120.884,108.677-179.702,63.496c-6.783-3.391,9.919,11.684,16.089,16.094
			C1290.162,341.646,1403.839,289.802,1405.758,216.572z"/>
	</g>
	<g id="g705751" transform="matrix(0.67493398,0,0,0.67493398,110.30897,35.926509)">
		<path id="path705745" style="fill:#EEA731;" d="M2531.11,1249.327c0,0,75.061-10.728,102.94,23.602
			c27.88,34.331,19.301,133.031-4.289,158.779c-23.591,25.748-122.242,6.437-122.242,6.437
			C2557.869,1433.086,2532.448,1251.12,2531.11,1249.327L2531.11,1249.327z"/>
		<path id="path705747" style="fill:#F2BC62;" d="M2481.784,1343.737c-24.792-115.214,60.57-103.392,130.82-85.827
			c0,0-60.049,45.059-34.313,94.409C2518.242,1356.611,2481.784,1343.737,2481.784,1343.737z"/>
		<path id="path705749" style="fill:#F2BC62;" d="M2614.749,1440.292c-49.326,4.291-132.965,4.291-143.688-15.02
			c-10.723-19.311-17.157-42.913-17.157-42.913s62.193,17.165,100.796,15.02C2565.423,1436,2614.749,1440.292,2614.749,1440.292z"/>
	</g>
	<g id="g705743" transform="matrix(0.44333961,0.44333961,0.44333961,-0.44333961,73.019694,-17.452147)">
		<path id="path702343" style="fill:#EEA731;" d="M2126.818-553.72c0,0,75.082-10.744,102.96,23.571
			c27.878,34.315,19.273,132.993-4.33,158.74c-23.603,25.748-122.274,6.466-122.274,6.466
			C2153.538-370.014,2128.157-551.928,2126.818-553.72z"/>
		<path id="path698759" style="fill:#F2BC62;" d="M2077.457-459.322c-24.77-115.179,60.611-103.381,130.874-85.838
			c0,0-60.075,45.063-34.346,94.394C2113.921-446.46,2077.457-459.322,2077.457-459.322z"/>
		<path id="path704798" style="fill:#F2BC62;" d="M2210.43-362.824c-49.339,4.302-132.999,4.324-143.72-14.98
			c-10.721-19.303-17.15-42.898-17.15-42.898s62.204,17.146,100.817,14.991C2161.093-367.102,2210.43-362.824,2210.43-362.824z"/>
	</g>
</g>
</svg>
