<svg xmlns="http://www.w3.org/2000/svg" enable-background="new 0 0 64 64" viewBox="0 0 64 64" id="timber">
  <path d="M6.51,35.99c-3.65,0-6.52-5.06-6.52-11.52s2.86-11.52,6.52-11.52s6.52,5.06,6.52,11.52S10.16,35.99,6.51,35.99z
			 M6.51,13.93c-3,0-5.53,4.83-5.53,10.54S3.51,35,6.51,35s5.53-4.82,5.53-10.54S9.51,13.93,6.51,13.93z"></path>
  <path d="M17.69 35.99H6.51c-.27 0-.49-.22-.49-.49 0-.27.22-.49.49-.49h11.18c.27 0 .49.22.49.49C18.18 35.77 17.96 35.99 17.69 35.99zM44.88 35.99H23.99c-.27 0-.49-.22-.49-.49 0-.27.22-.49.49-.49h20.88c.27 0 .49.22.49.49C45.37 35.77 45.15 35.99 44.88 35.99zM56.48 35.99h-5.01c-.27 0-.49-.22-.49-.49 0-.27.22-.49.49-.49h5.01c1.55 0 3-.76 3.88-2.03 3.53-5.09 3.53-12.29.02-17.13-.87-1.19-2.28-1.91-3.79-1.91H6.51c-.27 0-.49-.22-.49-.49 0-.27.22-.49.49-.49h50.08c1.82 0 3.54.86 4.59 2.31 3.75 5.17 3.75 12.85-.01 18.27C60.11 35.07 58.35 35.99 56.48 35.99z"></path>
  <path d="M26.67,50.46c-0.52,0-1.03-0.19-1.43-0.57l-14.5-14.03c-0.2-0.19-0.2-0.5-0.01-0.7c0.19-0.2,0.5-0.2,0.7-0.01l14.5,14.03
			c0.42,0.4,1.09,0.4,1.5-0.01l1.17-1.17c0.2-0.2,0.31-0.47,0.31-0.76c0-0.29-0.11-0.56-0.32-0.76L17.6,35.6
			c-0.19-0.19-0.2-0.5,0-0.7c0.19-0.19,0.5-0.2,0.7,0l10.99,10.88c0.39,0.39,0.61,0.9,0.61,1.46c0,0.55-0.21,1.07-0.6,1.46
			l-1.17,1.17C27.73,50.26,27.2,50.46,26.67,50.46z"></path>
  <path d="M8.61 51.05c-.54 0-1.05-.21-1.43-.59l-1.33-1.33c-.38-.38-.59-.9-.59-1.44 0-.54.22-1.05.61-1.43l8.17-7.92c.19-.19.51-.18.7.01.19.19.18.51-.01.7l-8.17 7.92c-.2.19-.31.45-.31.73 0 .28.11.54.3.73l1.33 1.33c.2.2.47.33.74.3.28 0 .54-.11.73-.31l8.01-8.19c.19-.19.5-.2.7-.01.19.19.2.5.01.7l-8.01 8.19c-.38.39-.89.6-1.43.61C8.62 51.05 8.62 51.05 8.61 51.05zM21.11 38.89c-.13 0-.25-.05-.35-.14-.19-.19-.19-.5 0-.7l7.57-7.64c.39-.39.4-1.02.02-1.43l-.9-.97c-.16-.17-.38-.27-.62-.28-.25 0-.46.08-.63.24l-8.19 7.84c-.2.19-.51.18-.7-.02-.19-.2-.18-.51.02-.7l8.19-7.84c.36-.35.84-.52 1.34-.52.5.01.97.23 1.31.59l.9.97c.74.8.72 2.02-.04 2.79l-7.57 7.64C21.36 38.84 21.23 38.89 21.11 38.89zM36.07 50.8C36.07 50.8 36.07 50.8 36.07 50.8c-.51 0-.99-.2-1.35-.56l-1.05-1.05c-.74-.75-.74-1.96 0-2.71l8.04-8.04c.19-.19.5-.19.7 0s.19.5 0 .7l-8.04 8.04c-.36.36-.36.95 0 1.31l1.05 1.05c.18.18.41.27.65.27 0 0 0 0 0 0 .25 0 .48-.1.66-.27l8.04-8.04c.19-.19.5-.19.7 0s.19.5 0 .7l-8.04 8.04C37.07 50.6 36.59 50.8 36.07 50.8zM48.18 39.29c-.13 0-.25-.05-.35-.14-.19-.19-.19-.5 0-.7l8.04-8.04c.36-.36.37-.92.02-1.29l-1.02-1.08c-.17-.18-.41-.29-.66-.29-.25 0-.49.09-.67.27l-8.07 8.07c-.19.19-.5.19-.7 0-.19-.19-.19-.5 0-.7l8.07-8.07c.37-.37.85-.54 1.38-.56.52.01 1 .22 1.36.6l1.02 1.08c.71.76.7 1.93-.04 2.66l-8.04 8.04C48.43 39.24 48.3 39.29 48.18 39.29z"></path>
  <path d="M54.15 50.79c-.49 0-.98-.19-1.35-.56L38.41 35.84c-.19-.19-.19-.5 0-.7s.5-.19.7 0l14.38 14.38c.36.36.92.36 1.29.02l1.08-1.02c.18-.17.29-.41.29-.66 0-.25-.09-.49-.27-.67L44.53 35.84c-.19-.19-.19-.5 0-.7s.5-.19.7 0L56.58 46.5c.37.37.57.86.56 1.38s-.22 1.01-.6 1.36l-1.08 1.02C55.09 50.61 54.62 50.79 54.15 50.79zM63.31 21.99H36.79c-.27 0-.49-.22-.49-.49 0-.27.22-.49.49-.49h26.51c.27 0 .49.22.49.49C63.8 21.77 63.58 21.99 63.31 21.99zM26.53 21.99H12.31c-.27 0-.49-.22-.49-.49 0-.27.22-.49.49-.49h14.21c.27 0 .49.22.49.49C27.02 21.77 26.8 21.99 26.53 21.99z"></path>
  <path d="M31.66 27.12c-3.1 0-5.62-2.52-5.62-5.62s2.52-5.62 5.62-5.62 5.62 2.52 5.62 5.62S34.76 27.12 31.66 27.12zM31.66 16.86c-2.56 0-4.64 2.08-4.64 4.64s2.08 4.64 4.64 4.64 4.64-2.08 4.64-4.64S34.22 16.86 31.66 16.86zM61.83 17.74H39.96c-.27 0-.49-.22-.49-.49s.22-.49.49-.49h21.86c.27 0 .49.22.49.49S62.1 17.74 61.83 17.74zM23.99 18.11h-9.27c-.27 0-.49-.22-.49-.49 0-.27.22-.49.49-.49h9.27c.27 0 .49.22.49.49C24.48 17.89 24.26 18.11 23.99 18.11zM22.85 26.11h-7.27c-.27 0-.49-.22-.49-.49 0-.27.22-.49.49-.49h7.27c.27 0 .49.22.49.49C23.34 25.89 23.12 26.11 22.85 26.11zM49.63 27.48H38.93c-.27 0-.49-.22-.49-.49s.22-.49.49-.49h10.69c.27 0 .49.22.49.49S49.9 27.48 49.63 27.48zM63.29 27.48h-5.01c-.27 0-.49-.22-.49-.49s.22-.49.49-.49h5.01c.27 0 .49.22.49.49S63.57 27.48 63.29 27.48zM6.51 29.35c-1.56 0-2.78-2.04-2.78-4.64s1.22-4.64 2.78-4.64 2.78 2.04 2.78 4.64S8.07 29.35 6.51 29.35zM6.51 21.05c-.85 0-1.8 1.5-1.8 3.66s.95 3.66 1.8 3.66 1.8-1.5 1.8-3.66S7.36 21.05 6.51 21.05z"></path>
  <path d="M31.66,24.19c-1.49,0-2.69-1.21-2.69-2.69s1.21-2.69,2.69-2.69s2.69,1.21,2.69,2.69S33.14,24.19,31.66,24.19z
			 M31.66,19.79c-0.94,0-1.71,0.77-1.71,1.71c0,0.94,0.77,1.71,1.71,1.71s1.71-0.77,1.71-1.71C33.37,20.56,32.6,19.79,31.66,19.79z"></path>
</svg>
